<?xml version="1.0" standalone="no"?><!DOCTYPE svg PUBLIC "-//W3C//DTD SVG 1.1//EN" "http://www.w3.org/Graphics/SVG/1.1/DTD/svg11.dtd"><svg t="1602293621110" class="icon" viewBox="0 0 1024 1024" version="1.1" xmlns="http://www.w3.org/2000/svg" p-id="10873" xmlns:xlink="http://www.w3.org/1999/xlink" width="200" height="200"><defs><style type="text/css"></style></defs><path d="M895.6 231.1c-22.1-44.4-58.4-80.6-102.8-102.8C710.9 87.5 614.8 64 512 64c-99.8 0-193.2 22.1-273.6 60.8-49.7 23.9-89.7 63.9-113.6 113.6C86.1 318.8 64 412.2 64 512c0 102.8 23.5 198.9 64.4 280.9 22.1 44.4 58.4 80.6 102.8 102.8 82 40.8 178.1 64.4 280.9 64.4S711 936.6 793 895.7c44.4-22.1 80.6-58.4 102.8-102.8 40.8-82 64.4-178.1 64.4-280.9s-23.7-198.9-64.6-280.9z" p-id="10874" fill="#bfbfbf"></path></svg>